<?xml version="1.0" encoding="UTF-8"?>
<svg id="Layer_2" data-name="Layer 2" xmlns="http://www.w3.org/2000/svg" viewBox="0 0 426.43 118.77">
  <defs>
    <style>
      .cls-1 {
        fill: #d23553;
      }

      .cls-1, .cls-2, .cls-3, .cls-4, .cls-5 {
        stroke-width: 0px;
      }

      .cls-2 {
        fill: #da373e;
      }

      .cls-3 {
        fill: #989898;
      }

      .cls-4 {
        fill: #fff;
      }

      .cls-5 {
        fill: #010101;
      }
    </style>
  </defs>
  <g id="Layer_2-2" data-name="Layer 2">
    <g>
      <g>
        <g>
          <path class="cls-2" d="M156.42,13.67v53.71h-13.99V13.67h13.99Z"/>
          <path class="cls-2" d="M178.16,13.67l9.03,33.1h.15V13.67h13.09v53.71h-15.35l-9.33-33.18h-.15v33.18h-13.09V13.67h15.65Z"/>
          <path class="cls-2" d="M233.45,13.67l13.09,53.71h-14.9l-1.43-9.4h-11.13l-1.43,9.4h-14.67l12.86-53.71h17.6ZM224.58,24.66l-3.84,22.79h7.82l-3.84-22.79h-.15Z"/>
          <path class="cls-5" d="M269.34,13.67c2.66,0,4.97.43,6.92,1.28,1.96.85,3.57,2.02,4.85,3.5,1.28,1.48,2.22,3.22,2.82,5.23.6,2.01.9,4.19.9,6.54,0,5.57-1.49,9.74-4.48,12.53s-7.36,4.17-13.13,4.17h-4.89v20.46h-13.99V13.67h20.99ZM264.97,36.84c1.76,0,3.1-.53,4.03-1.58.93-1.05,1.39-2.71,1.39-4.97,0-4.36-1.81-6.54-5.42-6.54h-2.63v13.09h2.63Z"/>
          <path class="cls-5" d="M311.17,13.67c2.66,0,4.93.35,6.81,1.05,1.88.7,3.41,1.69,4.59,2.97,1.18,1.28,2.03,2.8,2.56,4.55.53,1.76.79,3.66.79,5.72,0,3.61-.73,6.52-2.18,8.73-1.46,2.21-3.79,3.56-7,4.06v.15c3.36.3,5.67,1.48,6.92,3.54,1.25,2.06,1.88,4.89,1.88,8.5v6.77c0,.75.02,1.47.08,2.14.05.68.12,1.29.23,1.84.1.55.23.98.38,1.28.2.3.4.59.6.87.2.28.53.54.98.79v.75h-14.9c-.35-.7-.62-1.53-.79-2.48-.18-.95-.3-1.91-.38-2.86-.08-.95-.13-1.87-.15-2.75-.03-.88-.04-1.59-.04-2.14v-3.61c0-1.5-.08-2.76-.23-3.76-.15-1-.41-1.79-.79-2.37-.38-.58-.85-.98-1.43-1.2-.58-.23-1.29-.34-2.14-.34h-3.69v21.52h-13.99V13.67h21.89ZM306.05,36.39c2,0,3.49-.59,4.44-1.77.95-1.18,1.43-2.72,1.43-4.63,0-2.26-.46-3.86-1.39-4.81-.93-.95-2.44-1.43-4.55-1.43h-2.71v12.64h2.78Z"/>
          <path class="cls-5" d="M331.85,27.7c.65-3.54,1.73-6.42,3.24-8.65,1.5-2.23,3.49-3.86,5.94-4.89,2.46-1.03,5.47-1.54,9.03-1.54s6.57.51,9.03,1.54c2.46,1.03,4.44,2.66,5.94,4.89,1.5,2.23,2.58,5.12,3.24,8.65.65,3.54.98,7.81.98,12.83s-.33,9.29-.98,12.83c-.65,3.54-1.73,6.42-3.24,8.65-1.5,2.23-3.49,3.83-5.94,4.78-2.46.95-5.47,1.43-9.03,1.43s-6.57-.48-9.03-1.43c-2.46-.95-4.44-2.54-5.94-4.78-1.5-2.23-2.58-5.12-3.24-8.65-.65-3.54-.98-7.81-.98-12.83s.33-9.29.98-12.83ZM345.47,49.52c.1,2.38.31,4.28.64,5.68.33,1.41.8,2.38,1.43,2.93.63.55,1.47.83,2.52.83s1.89-.27,2.52-.83c.63-.55,1.1-1.53,1.43-2.93.33-1.4.54-3.3.64-5.68.1-2.38.15-5.38.15-8.99s-.05-6.61-.15-8.99c-.1-2.38-.31-4.27-.64-5.68-.33-1.4-.8-2.38-1.43-2.93-.63-.55-1.47-.83-2.52-.83s-1.89.28-2.52.83c-.63.55-1.1,1.53-1.43,2.93-.33,1.41-.54,3.3-.64,5.68-.1,2.38-.15,5.38-.15,8.99s.05,6.61.15,8.99Z"/>
          <path class="cls-5" d="M394.82,23.75c-.6-1.1-1.58-1.66-2.93-1.66-1.05,0-1.89.28-2.52.83-.63.55-1.1,1.53-1.43,2.93-.33,1.41-.54,3.3-.64,5.68-.1,2.38-.15,5.38-.15,8.99s.05,6.61.15,8.99c.1,2.38.31,4.28.64,5.68.33,1.41.8,2.38,1.43,2.93.63.55,1.47.83,2.52.83.85,0,1.55-.21,2.11-.64.55-.42.98-1.14,1.28-2.14.3-1,.51-2.34.64-4.03.12-1.68.19-3.8.19-6.36h13.54v3.99c0,3.76-.5,6.85-1.5,9.25-1,2.41-2.33,4.3-3.99,5.68-1.66,1.38-3.55,2.31-5.68,2.78-2.13.48-4.33.71-6.58.71-3.91,0-7.12-.48-9.63-1.43s-4.46-2.54-5.87-4.78c-1.41-2.23-2.37-5.12-2.9-8.65-.53-3.54-.79-7.81-.79-12.83s.31-9.45.94-13.01c.63-3.56,1.69-6.44,3.2-8.65,1.5-2.21,3.49-3.8,5.94-4.78,2.46-.98,5.49-1.47,9.1-1.47,3.16,0,5.84.4,8.05,1.2,2.21.8,4,1.94,5.38,3.42,1.38,1.48,2.38,3.26,3.01,5.34.63,2.08.94,4.43.94,7.03v3.39h-13.54v-3.01c0-3.06-.3-5.14-.9-6.24Z"/>
        </g>
        <g>
          <path class="cls-3" d="M149.44,92.85l-2.76,2.88v5.2h-4.73v-20.57h4.73v9.61l9.11-9.61h5.29l-8.52,9.17,9.02,11.4h-5.55l-6.58-8.08Z"/>
          <path class="cls-3" d="M177,91.91v9.02h-4.29v-1.97c-.85,1.44-2.5,2.2-4.82,2.2-3.7,0-5.91-2.06-5.91-4.79s1.97-4.73,6.79-4.73h3.64c0-1.97-1.18-3.12-3.64-3.12-1.67,0-3.41.56-4.56,1.47l-1.65-3.2c1.73-1.23,4.29-1.91,6.82-1.91,4.82,0,7.61,2.23,7.61,7.02ZM172.42,95.94v-1.62h-3.14c-2.15,0-2.82.79-2.82,1.85,0,1.15.97,1.91,2.59,1.91,1.53,0,2.85-.71,3.38-2.15Z"/>
          <path class="cls-3" d="M191.34,100.17c-.94.68-2.32,1-3.73,1-3.73,0-5.91-1.91-5.91-5.67v-6.5h-2.44v-3.53h2.44v-3.85h4.58v3.85h3.94v3.53h-3.94v6.44c0,1.35.73,2.09,1.97,2.09.68,0,1.35-.21,1.85-.59l1.23,3.23Z"/>
          <path class="cls-3" d="M207.91,91.91v9.02h-4.29v-1.97c-.85,1.44-2.5,2.2-4.82,2.2-3.7,0-5.91-2.06-5.91-4.79s1.97-4.73,6.79-4.73h3.64c0-1.97-1.18-3.12-3.64-3.12-1.67,0-3.41.56-4.56,1.47l-1.65-3.2c1.73-1.23,4.29-1.91,6.82-1.91,4.82,0,7.61,2.23,7.61,7.02ZM203.33,95.94v-1.62h-3.14c-2.15,0-2.82.79-2.82,1.85,0,1.15.97,1.91,2.59,1.91,1.53,0,2.85-.71,3.38-2.15Z"/>
          <path class="cls-3" d="M212.05,79.13h4.58v21.81h-4.58v-21.81Z"/>
          <path class="cls-3" d="M219.72,93.03c0-4.76,3.67-8.14,8.7-8.14s8.67,3.38,8.67,8.14-3.64,8.14-8.67,8.14-8.7-3.38-8.7-8.14ZM232.45,93.03c0-2.73-1.73-4.38-4.03-4.38s-4.06,1.65-4.06,4.38,1.76,4.38,4.06,4.38,4.03-1.65,4.03-4.38Z"/>
          <path class="cls-3" d="M256.45,85.12v13.17c0,5.88-3.17,8.58-8.88,8.58-3,0-5.91-.73-7.76-2.17l1.82-3.29c1.35,1.09,3.56,1.79,5.58,1.79,3.23,0,4.64-1.47,4.64-4.32v-.68c-1.2,1.32-2.94,1.97-5,1.97-4.38,0-7.91-3.03-7.91-7.64s3.53-7.64,7.91-7.64c2.2,0,4.03.73,5.23,2.26v-2.03h4.35ZM251.93,92.53c0-2.32-1.73-3.88-4.14-3.88s-4.17,1.56-4.17,3.88,1.76,3.88,4.17,3.88,4.14-1.56,4.14-3.88Z"/>
          <path class="cls-3" d="M285.28,97.11v3.82h-15.93v-20.57h15.55v3.82h-10.81v4.47h9.55v3.7h-9.55v4.76h11.2Z"/>
          <path class="cls-3" d="M288.74,79.13h4.58v21.81h-4.58v-21.81Z"/>
          <path class="cls-3" d="M312.98,94.32h-11.96c.44,1.97,2.12,3.17,4.53,3.17,1.68,0,2.88-.5,3.97-1.53l2.44,2.65c-1.47,1.67-3.67,2.56-6.52,2.56-5.47,0-9.02-3.44-9.02-8.14s3.61-8.14,8.43-8.14,8.23,3.12,8.23,8.2c0,.35-.06.85-.09,1.23ZM300.96,91.65h7.79c-.32-2-1.82-3.29-3.88-3.29s-3.59,1.26-3.91,3.29Z"/>
          <path class="cls-3" d="M322.91,94.73l-2.2,2.17v4.03h-4.58v-21.81h4.58v12.34l6.7-6.35h5.47l-6.58,6.7,7.17,9.11h-5.55l-5-6.2Z"/>
          <path class="cls-3" d="M345.72,100.17c-.94.68-2.32,1-3.73,1-3.73,0-5.91-1.91-5.91-5.67v-6.5h-2.44v-3.53h2.44v-3.85h4.58v3.85h3.94v3.53h-3.94v6.44c0,1.35.74,2.09,1.97,2.09.68,0,1.35-.21,1.85-.59l1.23,3.23Z"/>
          <path class="cls-3" d="M358.11,84.89v4.23c-.38-.03-.68-.06-1.03-.06-2.53,0-4.2,1.38-4.2,4.41v7.46h-4.58v-15.81h4.38v2.09c1.12-1.53,3-2.32,5.44-2.32Z"/>
          <path class="cls-3" d="M359.52,93.03c0-4.76,3.67-8.14,8.7-8.14s8.67,3.38,8.67,8.14-3.64,8.14-8.67,8.14-8.7-3.38-8.7-8.14ZM372.25,93.03c0-2.73-1.73-4.38-4.03-4.38s-4.06,1.65-4.06,4.38,1.76,4.38,4.06,4.38,4.03-1.65,4.03-4.38Z"/>
          <path class="cls-3" d="M396.11,91.88v9.05h-4.58v-8.35c0-2.56-1.18-3.73-3.2-3.73-2.2,0-3.79,1.35-3.79,4.26v7.82h-4.58v-15.81h4.38v1.85c1.23-1.35,3.09-2.09,5.23-2.09,3.73,0,6.55,2.17,6.55,6.99Z"/>
          <path class="cls-3" d="M399.69,80.36c0-1.44,1.15-2.56,2.85-2.56s2.85,1.06,2.85,2.47c0,1.53-1.15,2.65-2.85,2.65s-2.85-1.12-2.85-2.56ZM400.25,85.12h4.58v15.81h-4.58v-15.81Z"/>
          <path class="cls-3" d="M415.88,94.73l-2.2,2.17v4.03h-4.58v-21.81h4.58v12.34l6.7-6.35h5.47l-6.58,6.7,7.17,9.11h-5.55l-5-6.2Z"/>
        </g>
      </g>
      <g>
        <rect class="cls-1" width="118.77" height="118.77" rx="39" ry="39"/>
        <g>
          <path class="cls-4" d="M60.68,18.31c-7.93,0-14.39,6.45-14.39,14.38v6.08l5.95-.02v-6.05c0-4.65,3.78-8.44,8.44-8.44s8.44,3.79,8.44,8.44v6.04l5.95-.06v-5.98c0-7.93-6.46-14.38-14.39-14.38Z"/>
          <path class="cls-4" d="M88.92,84.59l-3.16-38.1c-.37-4.44-3.87-7.84-8.05-7.83h-2.64s-5.95.03-5.95.03l-16.88.06-5.95.02h-2.52c-4.07.02-7.49,3.26-7.97,7.56l-4.32,37.99c-.58,5.11,3.16,9.62,8,9.62h41.41c4.73,0,8.44-4.32,8.03-9.35ZM74.24,52.34c0,6.71-5.46,12.17-12.17,12.17h-3.77c-6.71,0-12.17-5.46-12.17-12.17,0-1.64,1.33-2.97,2.97-2.97s2.97,1.33,2.97,2.97c0,3.43,2.79,6.22,6.22,6.22h3.77c3.43,0,6.22-2.79,6.22-6.22v-.94c0-1.64,1.33-2.97,2.97-2.97s2.97,1.33,2.97,2.97v.94Z"/>
        </g>
      </g>
    </g>
  </g>
</svg>