<?xml version="1.0" standalone="no"?>
<!DOCTYPE svg PUBLIC "-//W3C//DTD SVG 20010904//EN"
 "http://www.w3.org/TR/2001/REC-SVG-20010904/DTD/svg10.dtd">
<svg version="1.0" xmlns="http://www.w3.org/2000/svg"
 width="198.000000pt" height="256.000000pt" viewBox="0 0 198.000000 256.000000"
 preserveAspectRatio="xMidYMid meet">

<g transform="translate(0.000000,256.000000) scale(0.100000,-0.100000)"
fill="#000000" stroke="none">
<path d="M378 2553 l-127 -4 -12 -37 c-32 -100 -148 -278 -208 -321 l-31 -22
0 -637 c0 -426 4 -656 11 -696 51 -273 239 -501 539 -651 102 -51 190 -83 278
-102 86 -17 133 -35 152 -57 18 -23 27 -20 71 17 30 26 60 39 131 56 373 91
619 318 749 691 l33 95 4 642 3 642 -30 16 c-70 36 -151 150 -207 292 l-29 73
-565 0 c-311 0 -581 2 -600 3 -19 2 -92 2 -162 0z m1318 -40 c39 -125 130
-274 197 -325 l44 -33 7 -315 c11 -461 0 -882 -25 -989 -38 -164 -139 -341
-265 -468 -126 -126 -288 -213 -490 -262 -63 -16 -102 -31 -125 -51 l-34 -28
-40 23 c-22 13 -82 33 -133 44 -174 38 -345 121 -493 240 -142 113 -236 246
-292 411 l-31 95 -4 647 -3 647 46 42 c58 53 130 162 175 261 l35 78 713 0
c670 0 713 -1 718 -17z"/>
<path d="M267 2398 c-20 -40 -59 -101 -86 -135 l-51 -63 835 0 835 0 -46 57
c-48 59 -104 164 -104 196 0 16 -39 17 -673 17 l-674 0 -36 -72z m1371 -3 c10
-27 34 -75 54 -105 l37 -55 -379 -3 c-208 -1 -552 -1 -764 0 l-386 3 41 60
c22 33 50 81 61 108 l21 47 649 -2 649 -3 17 -50z"/>
<path d="M354 2364 c-13 -19 -15 -32 -8 -52 12 -34 48 -41 66 -13 12 19 12 19
25 1 10 -15 24 -19 51 -17 20 1 42 6 49 10 6 4 14 3 18 -3 3 -5 19 -10 36 -10
21 0 29 5 29 17 0 15 2 14 14 -3 21 -28 28 -14 23 47 -3 43 -5 49 -11 31 -9
-23 -9 -23 -23 -2 -20 29 -33 16 -34 -33 l-1 -42 -10 35 c-15 52 -29 66 -45
44 -7 -10 -13 -27 -14 -38 0 -12 -3 -15 -6 -8 -2 6 -14 12 -25 12 -14 0 -18
-5 -14 -15 3 -8 1 -15 -4 -15 -6 0 -10 11 -10 24 0 19 4 23 20 19 28 -7 26 24
-2 33 -16 5 -26 1 -38 -14 -16 -19 -17 -19 -28 -1 -17 26 -38 24 -58 -7z m36
-29 c0 -14 -4 -25 -10 -25 -11 0 -14 33 -3 43 11 11 13 8 13 -18z"/>
<path d="M717 2384 c-11 -11 -8 -104 3 -104 5 0 13 7 18 16 8 15 10 15 15 0 4
-9 13 -16 22 -16 13 0 14 4 2 33 -10 23 -11 37 -3 49 13 21 1 35 -17 20 -9 -8
-17 -8 -23 -2 -6 6 -13 7 -17 4z"/>
<path d="M802 2378 c-16 -16 -16 -70 0 -86 17 -17 45 -15 57 6 9 14 10 14 11
1 0 -11 11 -15 45 -15 l46 -1 -3 50 c-3 54 -23 73 -36 36 l-9 -23 -5 22 c-8
28 -28 28 -35 2 l-6 -21 -14 21 c-16 23 -33 26 -51 8z m38 -49 c0 -10 -4 -19
-10 -19 -5 0 -10 12 -10 26 0 14 4 23 10 19 6 -3 10 -15 10 -26z"/>
<path d="M977 2384 c-4 -4 -7 -29 -7 -56 0 -47 1 -48 30 -48 33 0 43 25 13 33
-17 4 -17 5 0 6 9 0 17 7 17 15 0 8 -8 17 -17 19 -16 4 -16 5 0 6 10 0 17 7
15 14 -5 14 -40 21 -51 11z"/>
<path d="M1047 2383 c-4 -3 -7 -28 -7 -55 0 -35 4 -48 14 -48 8 0 17 6 19 13
4 10 6 10 6 0 1 -7 7 -13 15 -13 16 0 19 78 4 98 -11 13 -40 16 -51 5z"/>
<path d="M1127 2383 c-4 -3 -7 -27 -7 -53 0 -45 1 -47 30 -47 21 0 30 5 30 16
1 14 2 14 14 -1 24 -32 36 -21 36 31 0 50 -15 76 -26 46 -6 -14 -8 -14 -19 1
-9 13 -14 14 -19 5 -6 -8 -12 -9 -20 -2 -7 6 -16 8 -19 4z"/>
<path d="M1252 2378 c-7 -7 -12 -29 -12 -50 0 -32 4 -39 25 -44 15 -4 32 -1
40 6 17 14 20 50 5 50 -5 0 -7 7 -3 16 10 27 -32 45 -55 22z m27 -39 c-12 -8
-11 -11 1 -19 9 -6 10 -10 3 -10 -6 0 -15 5 -18 10 -10 16 3 42 16 34 8 -4 7
-9 -2 -15z"/>
<path d="M1356 2383 c-10 -10 -7 -62 4 -84 13 -22 43 -25 59 -5 14 17 11 91
-4 91 -5 0 -11 -17 -13 -38 -4 -43 -22 -41 -22 3 0 29 -12 45 -24 33z"/>
<path d="M1446 2383 c-3 -3 -6 -28 -6 -55 0 -47 1 -48 30 -48 20 0 30 5 30 15
0 8 -7 15 -15 15 -10 0 -15 10 -15 34 0 34 -11 52 -24 39z"/>
<path d="M1506 2383 c-10 -10 -7 -62 4 -84 13 -22 43 -25 59 -5 14 17 11 91
-4 91 -5 0 -11 -17 -13 -38 -4 -43 -22 -41 -22 3 0 29 -12 45 -24 33z"/>
<path d="M70 1550 c0 -680 1 -690 74 -845 69 -146 176 -264 339 -374 81 -55
232 -121 325 -143 111 -26 159 -45 182 -76 l19 -24 11 23 c18 38 55 59 151 85
202 54 338 132 464 266 120 128 200 281 245 472 19 79 20 115 18 647 l-3 564
-912 3 -913 2 0 -600z m1116 479 c193 -60 314 -151 436 -330 69 -100 108 -240
108 -384 0 -141 -94 -396 -181 -490 -24 -26 -71 -67 -104 -90 -61 -43 -198
-117 -212 -113 -5 1 -19 -4 -33 -10 -44 -20 -142 -33 -157 -21 -24 20 -14 27
50 33 63 7 63 8 59 36 -4 28 -4 28 -63 23 l-59 -6 0 52 c0 28 0 54 0 59 1 4 9
7 20 6 10 0 17 3 14 7 -10 16 43 34 114 39 40 3 73 10 74 15 1 6 -12 19 -29
30 -38 24 -45 50 -10 40 12 -4 29 -15 37 -24 14 -16 19 -16 58 -3 49 16 52 24
15 41 -16 8 -34 16 -41 20 -8 3 -13 9 -13 14 1 4 1 18 1 32 0 16 6 25 15 25 9
0 15 -9 15 -23 0 -16 9 -28 25 -35 14 -6 25 -16 25 -21 0 -13 58 20 65 36 3 9
-9 15 -35 19 -22 4 -45 13 -51 20 -6 8 -14 12 -18 10 -4 -3 -18 4 -31 14 -22
17 -24 22 -12 40 12 19 11 22 -7 27 -12 3 -17 11 -14 19 3 9 -1 14 -12 14 -9
0 -19 -9 -22 -20 -3 -11 -11 -20 -18 -20 -12 0 -75 -70 -75 -84 0 -3 7 -6 15
-6 8 0 15 -7 15 -15 0 -8 -9 -15 -19 -15 -11 0 -27 -10 -35 -22 -12 -17 -18
-19 -30 -9 -22 19 -59 -25 -52 -61 3 -16 1 -28 -4 -28 -6 0 -10 6 -10 13 0 7
-7 4 -15 -7 -14 -19 -15 -18 -15 13 0 51 -17 74 -50 68 -22 -5 -29 -2 -33 14
-9 32 -49 21 -61 -16 -14 -41 -13 -41 -36 -20 -11 10 -20 15 -20 11 0 -9 -100
44 -129 68 -68 60 -121 130 -121 162 0 8 -4 14 -9 14 -27 0 -38 207 -13 232 7
7 12 21 12 31 0 16 -3 17 -15 7 -8 -7 -15 -21 -15 -31 0 -10 -5 -30 -11 -46
-12 -31 -15 -108 -4 -138 4 -11 13 -36 20 -56 8 -20 11 -39 8 -43 -4 -3 -1 -6
5 -6 6 0 18 -13 26 -29 20 -37 100 -118 126 -126 11 -4 20 -11 20 -16 0 -5 7
-9 15 -9 8 0 15 -4 15 -9 0 -5 12 -11 28 -13 15 -2 26 -8 25 -15 -2 -8 8 -13
27 -13 25 0 32 -6 44 -35 15 -35 33 -44 52 -26 5 6 19 -2 35 -19 l26 -29 -30
-11 c-30 -10 -30 -10 -11 -33 10 -12 20 -24 21 -26 1 -2 9 2 18 9 20 17 24 12
17 -29 l-5 -34 -68 6 c-53 4 -70 2 -80 -9 -9 -10 -9 -18 -2 -25 8 -8 13 -5 18
10 9 31 39 28 33 -3 -5 -23 -1 -25 44 -31 76 -11 55 -30 -30 -28 -128 4 -274
82 -412 222 -79 79 -125 156 -175 286 -50 130 -44 268 20 468 62 196 256 383
460 443 158 46 310 50 431 13z m-246 -1119 c0 -5 -4 -10 -10 -10 -5 0 -10 5
-10 10 0 6 5 10 10 10 6 0 10 -4 10 -10z m90 -82 c0 -5 -4 -8 -10 -8 -5 0 -10
10 -10 23 0 18 2 19 10 7 5 -8 10 -18 10 -22z m-320 -302 c41 -14 111 -32 155
-39 71 -12 81 -16 89 -39 7 -19 4 -37 -10 -67 l-19 -42 -58 6 c-91 10 -222 51
-332 104 -55 27 -109 56 -120 64 -19 15 -19 16 18 70 l38 55 82 -43 c45 -24
116 -55 157 -69z m835 48 c14 -24 24 -48 21 -53 -3 -5 -56 -33 -118 -64 -121
-60 -246 -100 -353 -115 l-65 -9 -11 36 c-7 23 -8 49 -2 71 9 34 11 35 72 43
87 11 231 59 326 110 52 28 84 40 92 34 7 -5 24 -29 38 -53z m-541 -148 c-2
-89 -11 -111 -41 -99 -17 7 -16 43 1 66 10 13 11 28 5 55 -14 61 -12 74 14 70
21 -3 22 -7 21 -92z"/>
<path d="M974 2016 c-3 -8 -3 -20 1 -26 10 -15 25 -2 18 16 -4 12 -1 15 13 12
11 -2 19 -12 19 -23 0 -25 13 -35 44 -35 13 0 71 -16 129 -35 58 -20 105 -34
106 -33 1 2 6 12 12 23 10 17 6 22 -28 37 -65 29 -190 65 -251 73 -46 5 -58 4
-63 -9z"/>
<path d="M900 2013 c-115 -20 -283 -79 -263 -92 5 -3 14 -13 19 -23 8 -15 14
-14 67 7 32 13 96 32 143 42 63 13 83 21 79 31 -3 7 -5 20 -5 28 0 8 -3 13 -7
13 -5 -1 -19 -4 -33 -6z"/>
<path d="M603 1904 c-3 -8 -1 -20 6 -27 15 -15 27 -1 13 16 -7 8 -9 17 -5 20
3 4 3 7 -1 7 -3 0 -9 -7 -13 -16z"/>
<path d="M1340 1895 c0 -8 4 -15 9 -15 5 0 14 7 21 15 10 13 9 15 -9 15 -12 0
-21 -6 -21 -15z"/>
<path d="M1385 1865 l-20 -21 41 -34 c22 -19 67 -67 98 -107 51 -65 59 -71 77
-60 10 6 19 15 19 20 0 20 -119 162 -170 203 l-25 20 -20 -21z"/>
<path d="M478 1801 c-40 -44 -83 -97 -95 -119 l-23 -39 24 -11 c23 -10 28 -6
74 57 28 37 71 86 96 109 44 41 45 43 29 62 -10 11 -21 20 -24 20 -4 0 -40
-36 -81 -79z"/>
<path d="M909 1823 c-6 -15 -13 -40 -16 -55 -5 -24 -2 -27 31 -33 40 -8 162
-3 171 7 4 4 1 28 -7 55 l-14 48 -77 3 c-76 3 -77 3 -88 -25z"/>
<path d="M1328 1833 c7 -3 16 -2 19 1 4 3 -2 6 -13 5 -11 0 -14 -3 -6 -6z"/>
<path d="M1593 1615 c-8 -24 3 -29 27 -12 18 13 19 15 5 21 -23 8 -25 8 -32
-9z"/>
<path d="M920 1605 c0 -8 4 -15 9 -15 5 0 14 -12 19 -27 6 -16 11 -23 11 -16
1 6 -3 23 -9 37 l-10 26 60 0 c65 0 70 -6 45 -50 -8 -14 -14 -29 -14 -35 0 -5
7 3 16 20 9 16 23 36 31 44 13 13 12 16 -4 22 -11 4 -49 8 -86 8 -54 1 -68 -2
-68 -14z"/>
<path d="M340 1602 c0 -5 11 -14 25 -20 26 -12 33 -4 13 16 -14 14 -38 16 -38
4z"/>
<path d="M825 1580 c-3 -6 1 -7 9 -4 18 7 21 14 7 14 -6 0 -13 -4 -16 -10z"/>
<path d="M876 1504 c-36 -71 -39 -74 -73 -74 -25 0 -43 7 -59 26 -29 31 -29
32 -1 63 17 19 12 18 -20 -8 -24 -18 -45 -37 -48 -42 -4 -5 -26 -9 -51 -9 -37
0 -44 -3 -44 -20 0 -11 -7 -20 -15 -20 -8 0 -15 -3 -15 -7 0 -5 51 -8 114 -8
102 0 154 -10 119 -22 -7 -3 -13 -15 -13 -27 0 -19 4 -21 36 -18 28 3 34 8 29
21 -4 9 -9 21 -12 28 -8 20 36 25 185 21 125 -3 180 -12 145 -25 -7 -3 -13
-13 -13 -24 0 -15 7 -19 31 -19 29 0 31 2 26 29 -8 38 1 41 128 41 103 0 126
-7 137 -41 6 -19 48 0 60 27 15 33 5 39 -31 18 -37 -22 -55 -10 -23 16 14 12
22 29 22 49 0 38 -12 39 -38 6 -11 -14 -25 -25 -31 -25 -17 0 -13 -18 7 -29
14 -9 13 -10 -11 -11 -21 0 -30 6 -34 20 -4 14 -14 20 -35 20 -21 0 -47 13
-82 42 -28 23 -41 31 -29 17 21 -23 22 -26 7 -48 -9 -12 -14 -24 -12 -27 3 -2
11 7 18 21 15 29 23 31 40 10 26 -32 -38 -63 -68 -33 -9 9 -12 9 -12 0 0 -7
-16 -12 -41 -12 -40 0 -41 1 -35 28 3 15 3 21 0 14 -3 -6 -11 -9 -16 -5 -7 4
-9 -2 -6 -15 6 -21 3 -22 -53 -22 -32 0 -59 2 -59 5 0 4 7 20 16 36 8 17 13
33 11 35 -2 3 -10 -9 -17 -26 -10 -24 -15 -28 -22 -18 -6 9 -7 6 -3 -9 6 -22
4 -23 -59 -23 -39 0 -66 4 -66 10 0 6 14 38 31 71 17 34 29 63 27 64 -2 2 -21
-30 -42 -71z m-150 -41 c19 -26 17 -33 -10 -33 -31 0 -50 22 -34 38 17 17 29
15 44 -5z"/>
<path d="M1157 1561 c3 -12 13 -18 29 -17 l24 1 -23 17 c-29 23 -36 22 -30 -1z"/>
<path d="M1636 1572 c-4 -7 -16 -12 -26 -12 -18 0 -18 -2 -5 -41 12 -34 35
-179 35 -225 0 -7 11 -14 25 -16 24 -5 25 -4 25 51 -1 116 -35 273 -54 243z"/>
<path d="M787 1558 c-12 -9 -14 -17 -7 -28 7 -11 10 -11 10 -2 0 7 4 11 9 7 6
-3 9 4 8 15 -1 11 -2 20 -2 20 -1 0 -9 -6 -18 -12z"/>
<path d="M1081 1554 c0 -11 3 -14 6 -6 3 7 2 16 -1 19 -3 4 -6 -2 -5 -13z"/>
<path d="M305 1493 c-9 -37 -20 -107 -22 -155 l-6 -88 26 0 c24 0 26 3 32 68
4 37 15 103 25 147 10 44 18 81 17 82 -1 1 -14 4 -28 8 -25 6 -27 4 -44 -62z"/>
<path d="M1390 1536 c-5 -13 -15 -26 -22 -29 -8 -3 -1 -9 17 -16 24 -10 31
-10 41 3 14 20 6 66 -12 66 -8 0 -19 -11 -24 -24z"/>
<path d="M1146 1515 c-9 -26 -7 -32 5 -12 6 10 9 21 6 23 -2 3 -7 -2 -11 -11z"/>
<path d="M1180 1525 c0 -5 5 -17 10 -25 5 -8 10 -10 10 -5 0 6 -5 17 -10 25
-5 8 -10 11 -10 5z"/>
<path d="M820 1495 c0 -5 5 -17 10 -25 5 -8 10 -10 10 -5 0 6 -5 17 -10 25 -5
8 -10 11 -10 5z"/>
<path d="M1510 1346 c-41 -14 -48 -16 -56 -16 -4 0 -1 -7 6 -15 6 -8 9 -19 5
-25 -4 -6 -4 -22 -1 -36 6 -21 12 -25 38 -22 19 2 37 12 47 27 l16 24 -43 -5
c-23 -4 -44 -2 -47 2 -6 9 18 20 45 20 11 0 20 10 23 28 3 15 5 28 4 29 -1 0
-18 -4 -37 -11z"/>
<path d="M401 1244 c0 -11 3 -14 6 -6 3 7 2 16 -1 19 -3 4 -6 -2 -5 -13z"/>
<path d="M1601 1234 c0 -11 3 -14 6 -6 3 7 2 16 -1 19 -3 4 -6 -2 -5 -13z"/>
<path d="M1653 1233 c9 -9 19 -14 23 -11 10 10 -6 28 -24 28 -15 0 -15 -1 1
-17z"/>
<path d="M284 1211 c3 -5 17 -11 30 -13 17 -4 23 -1 19 9 -3 7 -16 13 -30 13
-13 0 -22 -4 -19 -9z"/>
<path d="M1447 1214 c-2 -3 -3 -13 0 -24 7 -25 53 -33 76 -13 25 23 21 29 -20
31 -20 2 -39 5 -43 7 -4 3 -10 2 -13 -1z"/>
<path d="M1610 1158 c-7 -29 -31 -94 -55 -145 -37 -79 -41 -92 -26 -97 9 -3
21 -8 27 -11 13 -7 87 151 108 229 13 52 13 56 -3 56 -9 0 -22 5 -28 11 -8 8
-14 -4 -23 -43z"/>
<path d="M312 1173 c-18 -4 -22 -9 -17 -26 14 -47 104 -223 123 -241 18 -16
23 -16 41 -4 20 14 19 15 -17 70 -20 31 -50 90 -67 132 -16 42 -32 75 -35 75
-3 -1 -15 -4 -28 -6z"/>
<path d="M1416 1154 c-11 -28 -6 -44 12 -44 10 0 23 -5 28 -10 14 -14 42 -3
55 21 8 16 6 19 -13 20 -13 1 -30 0 -37 -1 -8 -1 -20 5 -27 14 -11 15 -12 15
-18 0z"/>
<path d="M960 1074 c-24 -75 -24 -76 -5 -91 11 -8 19 -19 17 -25 -2 -8 1 -8
11 0 10 9 16 9 25 0 9 -9 12 -9 12 2 0 7 7 21 15 30 14 16 13 24 -11 89 -14
39 -29 71 -33 71 -3 0 -17 -34 -31 -76z"/>
<path d="M1378 1104 c-3 -5 -8 -21 -12 -36 -5 -23 -3 -28 13 -28 11 0 22 -4
25 -9 8 -12 42 -3 58 16 14 17 -4 33 -39 33 -12 0 -26 7 -31 16 -5 9 -11 13
-14 8z"/>
<path d="M1460 880 c-1 -22 -63 -71 -161 -127 -77 -44 -85 -51 -75 -68 6 -11
12 -22 13 -24 4 -7 160 82 211 121 53 41 60 52 41 63 -6 4 -14 17 -19 29 -5
13 -9 15 -10 6z"/>
<path d="M1500 882 c0 -5 7 -13 16 -16 10 -4 14 -1 12 6 -5 15 -28 23 -28 10z"/>
<path d="M465 869 c-11 -17 3 -23 20 -9 22 19 44 -2 25 -25 -9 -11 -10 -18 -1
-29 20 -24 154 -112 202 -133 l46 -21 9 26 c9 24 5 28 -56 59 -36 18 -96 57
-134 88 -67 54 -98 66 -111 44z"/>
<path d="M1183 684 c-3 -8 -1 -20 6 -27 8 -8 11 -4 9 16 -3 31 -6 34 -15 11z"/>
<path d="M461 571 c-6 -10 -7 -21 -4 -25 13 -12 31 -6 36 13 6 26 -20 36 -32
12z"/>
<path d="M511 541 c-8 -15 -7 -20 6 -25 9 -4 18 -4 21 -1 3 3 -1 5 -9 5 -10 1
-9 4 4 11 9 6 15 14 12 20 -10 15 -23 11 -34 -10z"/>
<path d="M566 514 c-7 -19 1 -34 19 -34 15 0 28 27 19 41 -9 14 -31 10 -38 -7z"/>
<path d="M627 493 c-4 -3 -7 -13 -7 -22 1 -13 3 -13 11 2 11 19 8 33 -4 20z"/>
<path d="M657 471 c-6 -25 38 -48 47 -25 10 26 7 36 -9 30 -8 -3 -15 -1 -15 4
0 18 -18 11 -23 -9z"/>
<path d="M736 463 c-14 -15 -5 -43 14 -43 13 0 20 7 20 19 0 19 -23 35 -34 24z"/>
<path d="M790 428 c0 -19 2 -20 10 -8 13 19 13 30 0 30 -5 0 -10 -10 -10 -22z"/>
<path d="M830 422 c0 -11 8 -18 20 -19 13 -1 20 4 20 15 0 11 -8 18 -20 19
-13 1 -20 -4 -20 -15z"/>
<path d="M900 411 c0 -19 23 -35 34 -24 12 12 6 25 -9 19 -8 -3 -15 -1 -15 4
0 5 8 11 18 13 13 4 11 5 -5 6 -16 1 -23 -5 -23 -18z"/>
<path d="M1480 565 c-13 -16 -6 -35 15 -35 18 0 26 15 19 34 -8 20 -18 20 -34
1z"/>
<path d="M1440 542 c0 -7 -4 -10 -10 -7 -5 3 -10 -1 -10 -9 0 -19 11 -25 33
-17 16 6 16 8 3 26 -10 12 -15 15 -16 7z"/>
<path d="M1370 495 c0 -27 6 -30 29 -16 12 8 12 12 2 25 -19 23 -31 20 -31 -9z"/>
<path d="M1322 491 c-15 -9 -5 -41 13 -41 8 0 17 5 21 11 9 15 -18 40 -34 30z"/>
<path d="M1269 473 c-11 -3 -15 -11 -12 -24 4 -13 11 -18 20 -15 8 3 17 6 19
6 2 0 4 9 4 20 0 20 -2 21 -31 13z"/>
<path d="M1201 443 c-1 -17 5 -23 19 -23 13 0 20 7 20 20 0 11 -4 20 -10 20
-5 0 -7 -7 -4 -15 4 -8 1 -15 -4 -15 -6 0 -13 8 -15 18 -4 13 -5 11 -6 -5z"/>
<path d="M1140 426 c0 -19 4 -23 20 -19 21 6 24 12 12 28 -14 20 -32 15 -32
-9z"/>
<path d="M1080 428 c0 -20 18 -43 26 -35 16 16 11 47 -8 47 -10 0 -18 -6 -18
-12z"/>
<path d="M1033 410 c1 -12 8 -20 20 -20 13 0 17 5 13 16 -3 9 -6 18 -6 20 0 2
-6 4 -14 4 -9 0 -14 -9 -13 -20z"/>
</g>
</svg>
