<?xml version="1.0" standalone="no"?>
<!DOCTYPE svg PUBLIC "-//W3C//DTD SVG 20010904//EN"
 "http://www.w3.org/TR/2001/REC-SVG-20010904/DTD/svg10.dtd">
<svg version="1.0" xmlns="http://www.w3.org/2000/svg"
 width="319.000000pt" height="358.000000pt" viewBox="0 0 319.000000 358.000000"
 preserveAspectRatio="xMidYMid meet">

<g transform="translate(0.000000,358.000000) scale(0.100000,-0.100000)"
fill="#000000" stroke="none">
<path d="M1631 3382 l-31 -99 -166 -6 c-92 -4 -234 -7 -315 -7 l-149 0 -52
-164 c-52 -165 -52 -165 -79 -159 -15 3 -35 0 -46 -6 -15 -9 -12 -10 15 -5 33
7 72 -15 72 -40 0 -7 9 -20 21 -30 16 -13 19 -24 15 -44 -4 -15 -7 -42 -6 -61
1 -56 -21 -71 -102 -66 -71 4 -108 22 -108 52 0 7 -12 19 -27 25 -16 7 -36 19
-46 27 -17 15 -18 14 -11 -14 9 -40 9 -37 0 -62 l-7 -23 -34 25 -33 26 -21
-27 c-11 -14 -26 -41 -32 -58 -12 -32 -13 -33 -63 -28 l-51 5 33 -38 c30 -34
52 -74 52 -94 0 -5 -11 -6 -25 -3 -13 2 -37 1 -51 -2 l-27 -7 32 -33 c37 -38
38 -45 7 -39 -53 10 -116 -51 -116 -112 0 -14 9 -52 20 -85 17 -50 18 -63 7
-88 -12 -30 -13 -30 -37 -12 -24 18 -24 18 -43 -17 -10 -20 -19 -48 -19 -64
-1 -16 -4 -29 -8 -29 -4 0 -19 -9 -34 -21 l-26 -21 20 -25 20 -25 -25 -20
c-35 -28 -31 -40 20 -61 49 -20 53 -28 30 -47 -25 -20 -18 -40 13 -40 49 0
123 -27 153 -56 16 -15 38 -52 49 -81 24 -64 25 -73 6 -73 -8 0 -28 -11 -44
-25 -17 -14 -37 -25 -47 -25 -9 0 -30 -13 -46 -30 -24 -23 -30 -38 -30 -72 1
-77 -4 -122 -18 -164 -12 -36 -11 -45 4 -78 10 -20 26 -41 36 -47 13 -7 19
-21 19 -47 1 -20 7 -50 14 -67 12 -27 10 -35 -15 -80 -15 -27 -30 -61 -34 -74
l-7 -24 78 7 c44 4 87 10 97 12 12 4 17 0 17 -14 0 -17 9 -18 123 -19 119 0
221 -15 233 -34 5 -9 -171 -99 -193 -99 -5 0 -19 13 -31 30 -26 35 -25 35
-211 -16 -69 -19 -147 -34 -175 -34 l-50 0 34 -30 c19 -16 40 -29 45 -29 6 0
-1 8 -14 18 l-23 18 63 12 c35 7 110 26 165 42 56 16 107 29 114 29 7 0 -4
-18 -24 -40 -40 -45 -42 -50 -22 -88 10 -21 46 -166 46 -188 0 -2 -9 -4 -19
-4 -21 0 -193 -61 -188 -66 2 -2 43 10 92 26 110 37 125 38 125 5 0 -54 53
-77 130 -55 30 9 37 7 50 -10 23 -29 112 -65 251 -99 165 -41 287 -59 510 -73
205 -12 461 -2 659 28 214 32 453 106 477 148 7 11 18 12 61 3 69 -14 105 2
110 51 4 40 13 41 127 2 49 -16 90 -28 92 -26 6 6 -165 66 -188 66 -10 0 -19
2 -19 4 0 23 35 163 46 184 21 40 18 52 -23 94 -22 23 -31 38 -23 38 8 0 69
-15 135 -34 66 -18 140 -37 165 -41 l44 -7 -23 -19 c-13 -11 -19 -19 -15 -19
5 0 25 14 44 30 l35 29 -51 1 c-27 0 -106 15 -175 34 -191 53 -184 52 -210 17
-13 -17 -27 -31 -33 -31 -6 0 -52 20 -103 45 -50 25 -101 45 -113 45 -26 0
-25 13 3 45 l22 26 45 -20 c72 -33 117 -28 214 24 47 25 95 45 106 45 30 0 44
-38 31 -85 l-10 -39 21 21 c15 15 23 38 26 77 4 48 1 57 -21 80 -40 40 -88 43
-181 12 -111 -38 -117 -39 -68 -16 62 30 105 79 130 146 12 32 36 82 54 109
l33 50 3 -76 c2 -47 -3 -92 -11 -118 -12 -33 -12 -41 -2 -41 24 0 77 53 96 95
36 78 17 220 -31 232 -29 8 -25 21 12 41 58 31 105 81 131 139 32 71 50 182
42 246 l-7 48 -27 -43 c-15 -24 -65 -77 -110 -119 -69 -63 -87 -86 -102 -130
-12 -37 -18 -46 -19 -29 0 14 10 43 21 65 34 64 128 187 165 218 63 53 79 97
79 222 0 74 -6 134 -19 183 l-18 73 -23 -54 c-26 -65 -68 -139 -88 -155 -11
-10 -13 -3 -9 43 5 58 -12 97 -62 144 -33 31 -41 78 -26 150 7 32 9 68 5 80
-3 11 -39 57 -80 101 -40 44 -85 104 -98 133 l-25 52 -7 -62 c-4 -35 -11 -63
-15 -63 -21 0 -155 173 -146 188 10 17 -18 94 -43 120 -19 19 -42 74 -79 190
l-53 162 -148 0 c-81 0 -223 3 -314 7 l-166 6 -31 99 c-17 54 -32 98 -34 98
-2 0 -17 -44 -35 -98z m64 -22 l28 -89 101 -3 101 -3 -75 -54 c-41 -30 -77
-56 -79 -58 -3 -2 8 -42 23 -89 15 -47 26 -88 23 -90 -2 -2 -35 18 -73 46 -38
27 -73 50 -78 50 -5 0 -41 -23 -79 -51 -38 -27 -71 -48 -73 -46 -2 2 7 37 21
77 14 40 25 81 25 89 0 9 -35 41 -78 71 l-77 55 101 3 100 3 29 89 c16 50 30
90 31 90 1 0 14 -40 29 -90z m-224 -160 l24 -19 -232 -1 -231 0 -32 -95 c-25
-74 -36 -95 -50 -95 -17 0 -16 8 16 103 19 56 36 108 39 115 3 9 57 12 224 12
203 0 220 -1 242 -20z m891 -100 c21 -63 36 -116 34 -117 -2 -2 -11 -1 -20 3
-10 4 -27 41 -44 98 l-29 91 -234 5 c-227 5 -233 6 -209 23 22 16 48 17 245
15 l220 -3 37 -115z m-932 49 c-11 -20 -10 -21 49 -17 34 1 61 1 61 -2 0 -4
-13 -48 -30 -100 -16 -52 -27 -96 -25 -98 2 -3 21 9 42 25 21 16 61 45 88 65
l50 36 89 -64 c49 -35 91 -63 92 -61 2 2 -10 45 -26 97 -16 52 -30 96 -30 98
0 1 29 2 65 2 58 0 65 2 65 20 0 19 7 20 184 20 l184 0 27 -81 c15 -44 25 -82
22 -85 -2 -2 -44 2 -92 11 -48 8 -95 15 -104 15 -9 0 12 -27 52 -67 38 -37 82
-92 99 -121 30 -53 77 -92 110 -92 15 0 38 -27 38 -45 0 -3 -21 8 -46 26 l-47
32 5 -86 c6 -118 43 -192 139 -281 l71 -66 48 -151 49 -151 -27 -23 c-15 -13
-31 -20 -37 -15 -5 4 -30 10 -55 14 -31 4 -61 19 -94 45 -41 33 -55 52 -81
117 -29 72 -33 79 -65 85 -33 7 -89 58 -161 146 -16 19 -38 33 -55 35 -22 2
-35 15 -59 56 -37 64 -124 125 -166 118 -21 -4 -29 2 -50 35 -31 51 -83 70
-132 47 -23 -11 -43 -12 -72 -6 -30 7 -42 5 -50 -5 -5 -8 -24 -35 -42 -60 -18
-26 -56 -62 -85 -81 -29 -20 -113 -98 -186 -175 -99 -105 -159 -158 -241 -215
-61 -42 -127 -96 -148 -122 -21 -25 -58 -56 -83 -69 l-44 -22 -33 21 c-18 11
-33 25 -33 29 0 5 34 114 75 242 l76 233 54 41 c30 23 55 47 55 53 0 6 -7 35
-17 64 -15 50 -15 54 4 92 l19 40 74 -24 c40 -12 78 -28 83 -33 21 -21 29 -10
25 34 -3 44 -3 45 28 45 17 0 45 -5 63 -11 41 -14 47 -8 31 32 -12 28 -11 32
6 42 33 18 86 81 72 86 -7 2 -24 12 -37 22 -13 11 -36 19 -50 19 -22 0 -29 7
-40 35 -14 40 -18 41 -49 19 -22 -15 -24 -14 -47 10 -13 14 -28 26 -32 26 -5
0 -19 -23 -32 -52 -17 -38 -26 -47 -32 -36 -5 9 3 51 22 111 l30 97 200 0
c200 0 200 0 189 -21z m883 -165 c83 -17 158 -54 182 -90 10 -15 20 -48 23
-73 6 -52 36 -102 116 -188 35 -39 55 -69 58 -91 l5 -33 -44 43 c-24 24 -69
80 -99 126 -54 79 -57 82 -95 82 -29 0 -37 3 -33 14 14 36 -83 144 -167 187
-40 20 -42 20 -29 3 8 -10 -1 -5 -20 11 -19 17 -37 32 -40 33 -6 4 50 -5 143
-24z m-1393 -70 c-17 -50 -24 -35 -9 16 7 24 15 38 17 32 2 -7 -2 -28 -8 -48z
m202 -3 c-11 -31 -11 -31 26 -32 l37 -1 -47 -16 c-27 -8 -48 -18 -48 -22 0 -4
17 -11 38 -17 29 -8 17 -9 -63 -5 -95 5 -99 4 -82 -12 24 -24 22 -26 -15 -13
-18 6 -34 12 -35 12 -1 1 8 21 20 46 18 37 23 40 25 22 5 -31 15 -29 56 13
l35 36 -9 -33 -10 -32 30 28 c16 16 32 37 36 48 3 10 8 16 11 13 3 -3 1 -19
-5 -35z m1367 -202 c13 -39 13 -39 2 -39 -16 0 -41 31 -41 51 0 30 27 22 39
-12z m66 -122 c29 -34 115 -225 115 -257 0 -5 9 -11 19 -15 18 -5 36 -33 27
-42 -2 -2 -42 18 -88 46 -96 56 -174 123 -202 172 -13 24 -1 14 43 -33 59 -64
127 -116 137 -105 3 3 -16 24 -41 48 -26 24 -65 71 -87 104 -21 33 -54 71 -72
83 -33 22 -46 56 -46 119 0 21 6 19 80 -28 44 -28 96 -69 115 -92z m-1666 25
l19 -61 -55 -43 -54 -43 -80 -245 -80 -245 22 -15 c13 -8 32 -23 43 -32 21
-17 21 -17 -9 -17 -18 0 -43 10 -62 27 l-33 27 21 68 c12 37 25 67 31 67 14 0
40 69 33 90 -7 22 52 210 66 210 5 0 8 8 7 18 -4 49 4 64 56 104 l54 42 -15
49 c-12 41 -12 51 -2 58 17 10 17 11 38 -59z m855 59 c29 -12 77 -77 69 -96
-2 -8 8 -22 24 -31 15 -10 45 -31 65 -47 25 -20 43 -27 55 -23 16 7 16 9 -7
27 -14 11 -47 32 -74 47 l-50 27 32 3 c50 5 114 -40 154 -110 26 -45 38 -58
57 -58 18 0 49 -25 110 -90 66 -69 92 -90 112 -90 24 0 30 -8 59 -80 18 -44
41 -87 52 -94 18 -13 18 -14 -1 -19 -15 -4 -34 10 -74 54 -29 32 -59 59 -66
59 -19 0 3 -33 42 -63 39 -30 53 -63 30 -75 -13 -8 -13 -15 -2 -50 17 -57 2
-89 -44 -97 -23 -5 -39 -16 -51 -37 l-18 -30 -86 86 -85 85 -36 -28 c-20 -16
-45 -39 -56 -52 -18 -20 -13 -19 40 10 l60 32 -52 -51 c-33 -32 -45 -49 -33
-46 59 17 60 14 5 -18 -33 -20 -63 -36 -67 -36 -8 0 -15 25 -21 86 -4 39 -1
45 39 85 52 51 56 45 13 -17 l-31 -45 60 43 c45 32 58 46 50 56 -9 11 -225
142 -234 142 -2 0 -9 -21 -15 -46 -11 -41 -14 -45 -25 -30 -10 14 -10 24 2 52
14 34 12 54 -7 54 -5 0 -9 -14 -9 -31 0 -20 -4 -29 -12 -26 -8 2 -13 20 -13
42 0 22 -5 40 -12 42 -7 3 -13 -2 -13 -9 0 -8 -7 -15 -15 -15 -9 0 -15 10 -15
24 0 20 -2 22 -19 11 -15 -9 -17 -17 -10 -42 10 -34 3 -70 -12 -61 -5 4 -9 19
-9 35 0 16 -5 32 -10 35 -18 11 -21 -22 -6 -60 13 -30 14 -41 4 -53 -11 -12
-15 -6 -28 38 l-15 53 -81 -65 c-44 -36 -97 -74 -118 -85 l-38 -19 57 -43 56
-43 -24 39 c-41 67 -41 69 6 23 l46 -45 -7 -59 c-4 -33 -11 -61 -17 -63 -5 -1
-37 13 -70 33 -55 32 -54 35 7 18 15 -5 5 10 -32 45 l-55 53 60 -33 60 -32
-45 47 c-24 25 -51 46 -60 46 -8 0 -30 -23 -48 -51 l-34 -51 -24 35 c-17 25
-24 50 -24 82 0 40 -3 47 -27 56 -19 8 -47 8 -85 2 -32 -5 -58 -5 -58 0 0 4 5
28 11 52 9 37 19 50 60 75 26 18 115 100 196 183 81 84 171 168 199 187 30 20
66 57 85 86 32 51 33 51 71 42 29 -6 46 -4 66 6 33 18 34 18 66 7z m1076 -137
c37 -39 69 -82 72 -96 3 -14 -1 -47 -8 -74 -7 -27 -10 -60 -7 -74 5 -25 5 -25
-23 5 -16 17 -40 38 -54 47 -14 10 -17 15 -7 12 13 -5 17 0 17 22 0 30 -37
114 -65 149 -14 17 -17 18 -25 5 -7 -10 -10 11 -10 65 l0 80 21 -35 c12 -19
52 -67 89 -106z m-2019 78 c9 -45 -16 -66 -59 -51 -18 6 -32 15 -32 19 0 14
64 70 75 67 5 -2 12 -18 16 -35z m1818 -55 c19 -21 47 -45 62 -54 16 -10 29
-24 29 -33 0 -8 11 -39 25 -68 l25 -53 -28 19 c-59 41 -61 40 -37 -23 5 -13 5
-17 -2 -10 -6 6 -23 44 -38 85 -37 100 -68 161 -94 184 -12 11 -21 26 -21 35
1 11 8 6 23 -14 12 -16 37 -47 56 -68z m-2009 18 c44 23 45 18 6 -25 -41 -45
-45 -55 -17 -40 32 17 33 12 7 -23 -15 -19 -26 -39 -26 -46 0 -7 -8 -11 -17
-9 -11 2 -20 21 -28 58 -7 30 -15 69 -19 85 -6 27 -5 26 16 -10 l22 -40 10 55
c10 53 11 54 14 18 l3 -38 29 15z m-85 -145 c3 -5 1 -10 -4 -10 -6 0 -11 5
-11 10 0 6 2 10 4 10 3 0 8 -4 11 -10z m92 -6 c-3 -3 -12 -4 -19 -1 -8 3 -5 6
6 6 11 1 17 -2 13 -5z m-105 -15 c82 1 88 -1 107 -25 12 -15 21 -32 21 -39 0
-7 7 -15 15 -19 25 -9 38 -55 22 -80 -8 -12 -12 -38 -9 -63 3 -32 -1 -46 -17
-62 -21 -21 -75 -29 -85 -12 -3 5 -25 6 -49 4 -55 -7 -91 15 -107 63 -9 27
-17 34 -37 34 -14 0 -37 13 -54 29 -66 67 -12 192 76 175 17 -3 69 -5 117 -5z
m154 -66 c-10 -10 -19 5 -10 18 6 11 8 11 12 0 2 -7 1 -15 -2 -18z m2149 -48
c84 -59 152 -135 160 -177 4 -21 0 -57 -10 -91 -17 -57 -28 -70 -39 -42 -3 8
-15 15 -26 15 -11 0 -19 3 -18 8 1 4 -22 55 -50 113 -29 59 -52 111 -52 117 0
6 -4 13 -8 16 -12 7 5 -100 24 -151 8 -23 29 -54 45 -68 33 -27 27 -34 -9 -9
-33 23 -50 63 -71 166 -10 51 -26 110 -34 131 -16 37 -16 37 6 26 12 -7 49
-31 82 -54z m-207 17 c15 -10 94 -242 87 -259 -11 -31 -26 -5 -66 115 -23 70
-44 133 -47 140 -5 14 7 16 26 4z m138 -133 c25 -122 53 -165 127 -189 47 -15
58 -35 64 -122 2 -39 8 -80 13 -93 7 -17 1 -38 -22 -86 l-32 -64 -6 46 c-4 37
-16 59 -55 104 -28 31 -61 72 -74 90 l-23 34 27 24 27 23 -46 145 c-26 79 -49
150 -52 158 -4 11 0 11 18 -1 16 -11 26 -32 34 -69z m389 -154 c4 -44 2 -95
-5 -131 -11 -51 -19 -66 -69 -115 -48 -48 -80 -89 -176 -224 -12 -16 -14 -17
-15 -4 0 9 13 34 29 56 55 76 74 122 67 167 -4 25 -3 36 2 28 6 -9 12 7 16 46
6 50 14 69 51 117 41 53 66 117 51 132 -4 4 -13 -2 -20 -13 -34 -47 -106 -137
-106 -131 0 4 25 39 55 78 30 39 63 93 72 121 l18 49 12 -52 c6 -29 15 -85 18
-124z m-1426 2 c34 -53 41 -72 41 -114 0 -46 3 -53 36 -78 34 -26 34 -28 20
-51 -21 -30 -22 -86 -2 -78 8 3 20 19 26 35 7 16 16 29 20 29 12 0 18 -102 8
-132 -5 -15 -8 -37 -5 -50 4 -21 4 -21 6 3 0 16 11 33 26 43 l25 16 0 -59 c0
-33 -4 -63 -10 -66 -5 -3 -10 -26 -10 -51 0 -28 4 -43 10 -39 6 3 10 21 10 39
0 33 32 87 45 75 3 -4 8 -38 12 -75 5 -65 4 -70 -21 -93 -20 -19 -26 -34 -26
-67 0 -24 5 -55 12 -69 9 -21 9 -31 0 -46 -15 -23 -17 -219 -2 -219 6 0 10 5
10 10 0 6 8 5 20 -2 23 -15 38 -4 22 15 -9 11 -6 19 13 37 17 16 25 34 25 58
0 33 52 132 69 132 16 -1 71 -102 71 -133 0 -22 8 -41 21 -53 13 -12 18 -26
15 -39 -5 -20 -1 -22 37 -22 l43 -1 -8 71 c-5 39 -10 73 -12 74 -2 2 -9 -10
-16 -27 -16 -39 -34 -34 -38 11 -4 33 -100 201 -114 196 -4 -1 -29 -37 -57
-80 -36 -55 -51 -88 -51 -112 0 -18 -4 -37 -10 -40 -6 -4 -10 12 -10 39 0 25
5 46 10 46 6 0 10 22 10 49 0 28 -4 53 -10 56 -5 3 -10 21 -10 39 0 30 9 39
99 105 78 56 102 79 111 106 17 50 35 65 84 65 37 0 56 10 156 84 l115 84 16
-83 c9 -45 22 -93 29 -106 11 -20 10 -25 -5 -34 -102 -60 -118 -135 -65 -295
31 -94 39 -185 20 -234 -5 -14 -24 -33 -42 -42 -124 -63 -178 -166 -178 -340
0 -73 20 -63 -190 -95 -170 -26 -542 -37 -716 -20 -142 14 -376 50 -394 61
-39 24 15 130 127 249 40 42 73 77 73 79 0 10 -70 30 -88 25 -21 -5 -21 -3
-10 27 6 18 19 35 29 37 10 3 15 11 12 20 -3 8 6 27 22 43 17 17 23 30 16 34
-20 13 -11 56 22 106 17 27 35 50 39 50 4 0 21 -20 38 -44 21 -31 30 -56 30
-84 0 -28 7 -45 25 -62 19 -18 22 -27 14 -41 -8 -16 -6 -19 11 -19 11 0 20 6
21 13 0 9 2 10 6 0 16 -42 23 7 21 175 -1 185 -1 187 -26 214 -23 25 -25 32
-19 94 4 37 9 70 13 73 12 12 44 -42 44 -74 0 -18 7 -38 15 -45 13 -11 15 -7
15 27 0 21 -7 48 -15 59 -9 11 -14 42 -15 77 l0 57 24 -16 c14 -8 27 -25 29
-37 3 -12 3 -4 2 18 -1 22 -4 45 -5 50 -1 6 -2 31 -1 58 1 48 15 63 26 27 7
-23 32 -50 46 -50 16 0 10 41 -11 76 l-21 32 36 27 c32 25 35 32 35 78 0 42 7
61 41 114 23 35 43 63 44 63 1 0 21 -28 44 -63z m-1139 24 c0 -4 -7 -29 -16
-56 l-17 -48 32 -26 c18 -15 30 -29 26 -32 -3 -4 -26 -4 -50 -1 -41 4 -48 1
-80 -31 l-36 -36 6 32 c4 17 14 47 21 66 8 18 14 38 14 43 0 9 -29 8 -70 -3
-10 -3 -15 3 -15 16 0 15 9 21 38 26 21 3 49 17 63 30 22 23 84 37 84 20z
m-260 -90 c0 -24 14 -2 27 42 11 38 11 34 6 -45 -7 -102 -1 -127 24 -107 15
13 16 11 10 -11 -4 -14 -7 -40 -7 -58 l0 -34 -26 31 c-14 17 -34 31 -45 31
-27 0 -24 18 4 22 21 4 19 7 -21 46 l-42 42 32 -6 33 -5 -35 30 c-19 17 -40
31 -47 31 -7 0 -13 4 -13 9 0 5 15 5 36 1 l36 -8 -5 41 -6 42 19 -40 c11 -22
20 -46 20 -54z m2416 2 c-6 -14 -9 -15 -16 -4 -11 19 -1 46 13 32 5 -5 7 -18
3 -28z m-1252 -33 c38 -53 42 -65 26 -75 -5 -3 -19 14 -32 37 -22 42 -40 88
-33 88 2 0 19 -23 39 -50z m400 -15 c-31 -63 -41 -73 -50 -51 -5 14 65 120 74
111 3 -2 -8 -30 -24 -60z m776 -26 c-6 -23 -11 -72 -10 -108 3 -84 2 -89 -11
-71 -8 12 -10 10 -6 -10 3 -14 8 -41 11 -60 l6 -35 -15 30 c-8 17 -14 36 -15
44 0 8 -3 11 -7 7 -4 -3 -13 4 -20 16 -12 20 -12 17 -8 -32 l5 -55 -14 35
c-29 70 -8 250 29 250 8 0 15 5 15 11 0 8 6 7 18 -2 9 -7 14 -10 10 -5 -6 8
13 38 20 31 2 -2 -2 -22 -8 -46z m307 -31 c-2 -18 -4 -6 -4 27 0 33 2 48 4 33
2 -15 2 -42 0 -60z m-142 -87 c64 -67 71 -91 50 -155 -13 -39 -14 -57 -6 -97
17 -76 14 -143 -6 -168 -18 -22 -18 -20 -15 45 6 109 -4 151 -47 193 -20 20
-27 28 -16 19 30 -25 35 -23 35 15 -1 45 -32 108 -79 160 -40 44 -47 67 -35
115 6 20 9 18 36 -24 16 -26 54 -72 83 -103z m-2063 112 c11 -9 25 -18 32 -19
6 -1 75 -47 151 -103 l139 -101 62 0 63 0 18 -56 c13 -43 27 -64 60 -91 24
-20 43 -44 43 -55 0 -16 -7 -14 -55 19 -46 32 -57 46 -73 93 l-19 55 -58 3
c-55 3 -66 8 -157 74 -55 39 -105 83 -113 98 -14 27 -65 68 -65 52 0 -4 14
-18 30 -30 31 -23 38 -50 19 -69 -8 -8 -8 -17 0 -31 17 -31 13 -67 -9 -87 -15
-13 -41 -19 -106 -21 l-86 -4 -34 35 c-20 22 -42 35 -58 35 -35 0 -84 45 -92
84 -12 67 38 117 116 115 45 -2 109 7 117 15 12 12 57 6 75 -11z m1794 -41
c-4 -11 -64 -62 -134 -113 -123 -91 -129 -94 -191 -99 l-64 -5 -19 -55 c-16
-47 -26 -61 -73 -93 -50 -35 -55 -36 -55 -18 0 13 15 32 40 49 31 22 43 39 60
90 l22 62 62 0 63 0 144 104 c79 58 145 103 147 101 2 -2 1 -12 -2 -23z m137
-54 c9 -94 33 -153 77 -191 22 -18 43 -44 48 -58 28 -72 20 -215 -13 -248 -13
-14 -15 -10 -15 30 0 81 -19 150 -67 247 -44 88 -47 100 -51 188 -5 107 12
131 21 32z m-2219 -96 c19 -36 26 -62 22 -78 -4 -13 1 -41 9 -61 l16 -37 -26
24 c-14 13 -25 28 -25 34 0 6 -12 38 -25 71 -20 50 -23 69 -18 115 7 53 7 54
14 20 3 -19 18 -59 33 -88z m822 18 l-17 35 34 -39 35 -39 -5 29 -5 29 21 -33
c22 -34 28 -57 11 -47 -5 3 -12 -12 -16 -35 -4 -22 -10 -43 -14 -45 -5 -3 -30
16 -57 41 -35 34 -40 41 -18 28 30 -17 30 -17 -8 29 -43 52 -39 62 7 20 31
-29 29 -24 -23 48 -21 30 -18 29 24 -11 l47 -45 -16 35z m827 38 c-5 -7 -24
-33 -43 -58 l-34 -45 35 33 c51 47 57 39 13 -15 -29 -36 -33 -43 -14 -30 48
33 41 16 -12 -28 -57 -50 -58 -49 -73 18 -3 15 -10 25 -15 22 -15 -9 -11 6 11
45 l20 35 -4 -29 -5 -29 35 39 34 39 -17 -35 -16 -35 43 43 c43 41 60 54 42
30z m1007 -127 c-26 -147 -71 -202 -239 -291 l-24 -12 21 27 c14 17 22 42 22
64 0 20 6 60 13 88 12 45 26 64 113 150 97 96 99 97 102 69 2 -16 -2 -59 -8
-95z m-2164 17 c71 -51 86 -58 128 -58 47 0 47 0 71 -52 21 -44 39 -63 122
-123 102 -74 123 -106 89 -135 -18 -14 -23 -110 -6 -110 6 0 10 -21 10 -46 0
-27 -4 -43 -10 -39 -5 3 -10 22 -10 41 0 25 -15 58 -51 115 -28 43 -53 79 -55
79 -2 0 -26 -33 -53 -74 -34 -50 -51 -85 -53 -112 -2 -27 -8 -40 -21 -42 -18
-4 -22 3 -31 58 -3 19 -15 50 -26 68 l-20 33 -47 -33 c-42 -28 -83 -43 -83
-30 0 16 59 78 98 103 44 28 44 28 21 38 -13 5 -35 12 -49 15 -24 5 -25 8 -25
80 0 42 -5 80 -11 86 -15 15 -119 -31 -134 -60 -8 -15 -15 -18 -23 -12 -7 6
-29 13 -49 17 l-38 7 0 -46 c0 -56 -11 -59 -31 -8 -37 90 -39 101 -17 108 10
3 24 16 30 29 6 14 23 26 42 30 17 3 51 21 76 39 37 27 46 39 48 69 4 43 -3
45 108 -35z m-476 -115 c15 -10 39 -16 61 -14 48 3 73 -10 88 -48 11 -24 10
-35 -4 -65 -9 -19 -14 -44 -10 -55 14 -45 -54 -131 -104 -131 -8 0 -26 -13
-42 -29 -19 -20 -34 -28 -48 -24 -24 6 -123 -16 -132 -30 -11 -16 -41 40 -41
77 0 18 6 44 13 57 7 14 12 55 11 102 -1 71 1 81 23 103 13 13 35 24 48 24 13
0 34 11 47 25 27 29 56 32 90 8z m2096 -40 c-6 -14 -3 -14 15 3 19 17 19 15
-5 -30 -18 -34 -26 -64 -26 -100 0 -37 -3 -47 -10 -36 -7 11 -10 5 -11 -25 -1
-27 -3 -32 -6 -16 -3 13 -11 30 -18 38 -12 11 -13 7 -9 -24 3 -29 2 -33 -5
-18 -5 11 -10 46 -10 78 -1 64 26 132 56 140 32 8 35 7 29 -10z m75 -112 c24
-66 49 -173 49 -216 -1 -16 -7 -39 -15 -49 -14 -18 -15 -17 -15 25 0 31 -13
71 -45 139 -50 106 -49 100 -34 155 10 37 12 38 25 20 8 -10 23 -44 35 -74z
m-1764 -10 l36 34 -37 -68 -38 -68 51 25 c74 38 73 32 -5 -23 -38 -27 -79 -60
-92 -73 l-23 -25 23 -7 23 -7 -25 -10 c-14 -6 -38 -22 -54 -37 l-28 -27 7 24
c4 14 7 44 7 69 -1 37 1 42 13 32 19 -16 28 5 29 71 1 42 3 46 14 32 6 -9 12
-21 12 -26 0 -4 5 -5 11 -1 8 4 10 29 6 73 l-5 66 20 -44 20 -43 35 33z m1911
-101 c-22 -30 -35 -41 -22 -17 9 16 36 47 41 47 2 0 -6 -13 -19 -30z m42 -15
c-15 -18 0 -20 20 -2 8 6 4 -1 -10 -17 -14 -16 -19 -26 -12 -22 6 4 12 4 12 1
0 -8 -95 -170 -122 -207 -18 -26 -20 -26 -37 -10 -10 9 -17 26 -16 37 3 27
110 195 138 217 27 22 44 23 27 3z m-2311 -224 l34 -25 -27 52 c-31 61 -29 67
7 14 14 -21 48 -67 77 -101 47 -56 53 -61 65 -45 12 17 13 16 20 -5 4 -13 23
-41 43 -63 l36 -39 -49 25 c-28 16 -65 26 -89 26 -39 1 -40 1 -21 16 24 18 16
24 -55 50 -25 9 -52 19 -60 22 -9 3 -1 8 20 11 l35 6 -55 17 c-30 9 -68 20
-85 24 -28 8 -26 9 19 12 l49 3 -39 42 -39 41 40 -29 c22 -16 55 -40 74 -54z
m469 -69 c-3 -51 -2 -52 12 -30 8 12 28 36 43 53 24 25 26 26 13 5 -18 -30
-72 -164 -81 -202 -7 -27 -6 -28 26 -21 l34 6 -28 -32 c-15 -18 -30 -45 -33
-59 -10 -47 -11 -48 -19 -7 -9 48 -30 92 -58 123 -24 26 -12 29 22 6 23 -17
23 -17 16 17 -4 19 -18 59 -31 89 l-25 55 37 -35 c34 -33 36 -33 29 -10 -4 14
-22 54 -41 89 -18 36 -32 66 -30 69 2 2 19 -15 37 -37 18 -23 36 -41 40 -41 4
0 11 21 15 48 l8 47 8 -40 c5 -22 8 -64 6 -93z m1507 -16 l-30 -25 43 4 c27 2
40 0 36 -7 -4 -6 2 -6 15 1 25 14 28 23 4 14 -11 -4 -15 -2 -10 3 7 8 67 16
67 9 0 -1 -17 -14 -37 -28 -68 -45 -167 -149 -183 -192 -6 -15 -6 -33 -1 -43
5 -9 5 -26 0 -37 -7 -18 -8 -18 -9 5 -1 23 -2 24 -11 5 -7 -15 -8 -12 -4 15 3
22 -1 42 -10 54 -14 19 -15 18 -25 -5 -8 -19 -9 -11 -4 31 12 99 26 122 118
182 67 43 85 49 41 14z m-1684 -24 l21 -32 -25 0 c-21 0 -25 5 -29 35 -5 42 6
41 33 -3z m1729 24 c0 -2 -7 -7 -16 -10 -8 -3 -12 -2 -9 4 6 10 25 14 25 6z
m-1670 -200 c0 -15 -42 -34 -131 -60 -69 -19 -83 -35 -75 -78 18 -92 34 -226
29 -250 -9 -48 -109 -66 -137 -26 -24 34 -20 48 14 48 30 0 100 24 100 34 0 3
-13 0 -29 -5 -16 -6 -44 -9 -63 -7 -31 3 -34 6 -45 53 -21 91 -18 102 25 108
21 4 46 14 57 23 20 16 20 16 0 8 -11 -4 -41 -9 -67 -12 -40 -3 -47 -1 -53 18
-4 12 -5 22 -3 23 1 1 42 15 90 31 47 16 117 46 155 67 70 39 133 51 133 25z
m1725 -35 c54 -27 126 -57 161 -67 63 -17 72 -26 55 -53 -9 -14 -75 -12 -116
3 -20 8 -20 8 0 -8 11 -9 36 -19 57 -23 44 -6 47 -21 25 -108 -11 -43 -17 -50
-40 -53 -14 -2 -42 1 -61 7 -20 5 -36 7 -36 5 0 -10 71 -34 100 -34 35 0 40
-22 13 -52 -31 -34 -127 -15 -136 28 -6 31 12 194 24 216 5 10 9 33 9 52 0 30
-4 36 -40 50 -22 9 -45 16 -50 16 -27 0 -120 43 -120 56 0 27 56 14 155 -35z
m-1640 -108 c5 -19 3 -23 -17 -23 -46 0 -52 12 -38 71 l13 54 18 -40 c9 -22
20 -50 24 -62z m-74 -27 c457 -111 893 -125 1339 -46 138 25 344 76 383 95 26
13 27 12 27 -11 0 -21 -10 -30 -65 -55 -36 -16 -65 -31 -65 -34 0 -2 25 5 56
15 l56 20 -6 -63 c-15 -146 -19 -152 -108 -193 l-33 -15 30 6 c17 3 47 15 68
25 20 11 37 16 37 11 0 -54 -221 -126 -510 -166 -162 -22 -522 -30 -705 -16
-189 15 -360 44 -488 82 -90 27 -177 63 -177 73 0 3 -3 12 -6 20 -5 13 5 11
47 -9 30 -14 61 -24 69 -24 8 0 -1 7 -20 16 -70 30 -88 50 -94 101 -3 26 -8
71 -12 99 l-6 53 42 -15 c69 -24 80 -17 16 10 -61 25 -76 38 -76 67 0 15 3 15
28 2 16 -7 93 -29 173 -48z"/>
<path d="M1690 2590 c0 -5 7 -15 15 -23 8 -8 11 -17 8 -21 -4 -3 1 -6 10 -6
10 0 16 -3 15 -7 -1 -5 15 -26 35 -48 21 -22 40 -50 43 -62 4 -13 10 -23 14
-23 4 0 11 -10 15 -22 8 -23 8 -23 12 -2 6 29 -34 112 -63 130 -12 9 -27 28
-32 43 -7 18 -21 32 -41 39 -17 6 -31 7 -31 2z"/>
<path d="M1532 2527 c-12 -13 -22 -35 -22 -49 0 -21 -6 -28 -29 -33 -16 -3
-33 -16 -39 -30 -7 -14 -20 -25 -30 -25 -10 0 -55 -25 -101 -55 -95 -63 -85
-71 45 -33 72 21 83 29 155 104 9 9 26 25 38 35 15 14 21 31 21 64 0 51 -7 55
-38 22z"/>
<path d="M1986 2405 c4 -8 17 -18 30 -21 13 -3 24 -12 24 -20 0 -8 7 -14 15
-14 9 0 19 -10 24 -23 9 -22 131 -116 131 -100 0 4 -13 30 -28 57 -21 38 -43
59 -97 92 -73 45 -109 55 -99 29z"/>
<path d="M1910 2392 c0 -5 22 -21 48 -35 71 -39 136 -100 176 -166 20 -31 47
-63 61 -69 14 -6 25 -9 25 -7 0 3 -27 42 -61 87 -63 86 -99 119 -185 169 -55
31 -64 34 -64 21z"/>
<path d="M1615 1350 c-48 -49 -56 -52 -97 -35 -16 6 -18 1 -18 -49 0 -49 2
-56 20 -56 19 0 20 -7 20 -102 0 -126 -8 -178 -26 -178 -8 0 -14 -6 -14 -14 0
-8 -7 -17 -16 -20 -8 -3 -12 -11 -9 -17 4 -6 -2 -13 -14 -16 -17 -4 -21 -13
-21 -44 l0 -39 225 0 225 0 0 40 c0 29 -4 40 -15 40 -8 0 -15 9 -15 20 0 11
-7 20 -15 20 -8 0 -15 7 -15 15 0 8 -6 15 -14 15 -18 0 -26 52 -26 178 0 95 1
102 20 102 18 0 20 7 20 55 0 30 -2 55 -5 55 -2 0 -16 -5 -30 -12 -24 -11 -29
-8 -78 40 l-53 52 -49 -50z m125 -158 c0 -12 -14 -25 -38 -36 -36 -17 -40 -16
-75 0 -23 11 -37 25 -37 36 0 16 9 18 75 18 66 0 75 -2 75 -18z m-100 -106
c21 -12 29 -12 52 0 44 23 48 18 48 -51 l0 -65 -75 0 -75 0 0 65 c0 70 5 75
50 51z"/>
<path d="M3011 1615 c-62 -49 -78 -75 -90 -140 -7 -35 -6 -45 5 -45 21 0 93
69 114 109 16 32 37 122 28 121 -1 -1 -27 -21 -57 -45z"/>
<path d="M1042 3375 c0 -16 2 -22 5 -12 2 9 2 23 0 30 -3 6 -5 -1 -5 -18z"/>
<path d="M1332 3375 c0 -16 2 -22 5 -12 2 9 2 23 0 30 -3 6 -5 -1 -5 -18z"/>
<path d="M1862 3380 c0 -14 2 -19 5 -12 2 6 2 18 0 25 -3 6 -5 1 -5 -13z"/>
<path d="M1912 3375 c0 -16 2 -22 5 -12 2 9 2 23 0 30 -3 6 -5 -1 -5 -18z"/>
<path d="M2002 3375 c0 -16 2 -22 5 -12 2 9 2 23 0 30 -3 6 -5 -1 -5 -18z"/>
<path d="M1241 3374 c0 -11 3 -14 6 -6 3 7 2 16 -1 19 -3 4 -6 -2 -5 -13z"/>
<path d="M2440 3320 c-8 -5 -10 -10 -5 -10 6 0 17 5 25 10 8 5 11 10 5 10 -5
0 -17 -5 -25 -10z"/>
<path d="M858 3313 c7 -3 16 -2 19 1 4 3 -2 6 -13 5 -11 0 -14 -3 -6 -6z"/>
<path d="M808 3193 c7 -3 16 -2 19 1 4 3 -2 6 -13 5 -11 0 -14 -3 -6 -6z"/>
<path d="M788 3113 c7 -3 16 -2 19 1 4 3 -2 6 -13 5 -11 0 -14 -3 -6 -6z"/>
<path d="M636 2942 c-3 -5 8 -6 25 -4 16 2 29 6 29 8 0 8 -49 4 -54 -4z"/>
<path d="M591 2864 c0 -11 3 -14 6 -6 3 7 2 16 -1 19 -3 4 -6 -2 -5 -13z"/>
<path d="M405 620 c-11 -4 -52 -14 -92 -20 l-72 -13 38 -27 c21 -15 53 -36 72
-45 19 -10 36 -19 38 -21 8 -7 -49 -83 -72 -96 -13 -7 -45 -29 -71 -48 l-48
-35 47 -3 c26 -2 52 1 56 5 5 5 -6 7 -26 5 -19 -2 -35 -2 -35 1 0 11 78 55
110 61 19 4 58 18 85 32 52 25 42 26 -37 0 l-46 -15 30 50 c17 27 29 50 27 52
-2 1 -34 17 -71 36 l-67 35 71 18 c40 10 77 23 82 28 12 12 8 12 -19 0z"/>
<path d="M2910 617 c0 -3 30 -13 68 -23 37 -10 69 -21 72 -25 3 -4 13 -2 22 5
15 11 9 15 -50 25 -37 6 -77 14 -89 17 -13 4 -23 4 -23 1z"/>
<path d="M2975 531 c-27 -14 -51 -27 -53 -28 -4 -2 23 -50 44 -80 l16 -23 -48
16 c-81 26 -92 26 -39 0 28 -14 66 -28 85 -32 19 -4 53 -19 74 -33 l40 -26
-30 -6 c-22 -5 -16 -7 25 -8 l55 -1 -46 29 c-25 16 -49 34 -53 41 -4 6 -18 15
-31 20 -33 13 -81 90 -62 101 7 5 18 9 23 9 6 0 24 11 40 25 38 31 24 30 -40
-4z"/>
</g>
</svg>
