<?xml version="1.0" standalone="no"?>
<!DOCTYPE svg PUBLIC "-//W3C//DTD SVG 20010904//EN"
 "http://www.w3.org/TR/2001/REC-SVG-20010904/DTD/svg10.dtd">
<svg version="1.0" xmlns="http://www.w3.org/2000/svg"
 width="3756.000000pt" height="1226.000000pt" viewBox="0 0 3756.000000 1226.000000"
 preserveAspectRatio="xMidYMid meet">

<g transform="translate(0.000000,1226.000000) scale(0.100000,-0.100000)"
fill="#000000" stroke="none">
<path d="M28358 4679 c-47 -14 -117 -73 -134 -116 -18 -42 -18 -147 0 -182 41
-79 148 -131 241 -117 61 10 134 61 162 115 39 75 26 179 -30 239 -52 56 -159
83 -239 61z"/>
<path d="M17373 4599 c-149 -17 -300 -65 -410 -130 -85 -51 -194 -162 -231
-239 -80 -163 -80 -367 -1 -529 44 -90 151 -199 279 -283 58 -39 204 -119 325
-179 300 -148 377 -210 411 -327 41 -141 -27 -287 -162 -349 -136 -62 -369
-70 -553 -19 -109 30 -234 88 -306 140 l-50 36 -3 -192 c-3 -225 -13 -204 123
-247 287 -92 671 -100 919 -19 236 77 388 231 432 438 22 102 14 253 -16 335
-53 142 -171 274 -345 388 -103 67 -163 99 -396 211 -230 112 -312 200 -313
339 -1 86 24 145 85 202 100 93 229 130 434 122 74 -3 158 -13 195 -22 69 -18
184 -69 238 -105 l32 -22 0 190 0 190 -37 15 c-134 53 -446 80 -650 56z"/>
<path d="M20103 4599 c-149 -17 -300 -65 -410 -130 -85 -51 -194 -162 -231
-239 -80 -163 -80 -367 -1 -529 44 -90 151 -199 279 -283 58 -39 204 -119 325
-179 300 -148 377 -210 411 -327 41 -141 -27 -287 -162 -349 -136 -62 -369
-70 -553 -19 -109 30 -234 88 -306 140 l-50 36 -3 -192 c-3 -225 -13 -204 123
-247 287 -92 671 -100 919 -19 236 77 388 231 432 438 22 102 14 253 -16 335
-53 142 -171 274 -345 388 -103 67 -163 99 -396 211 -230 112 -312 200 -313
339 -1 86 24 145 85 202 100 93 229 130 434 122 74 -3 158 -13 195 -22 69 -18
184 -69 238 -105 l32 -22 0 190 0 190 -37 15 c-134 53 -446 80 -650 56z"/>
<path d="M14710 3406 l0 -1166 190 0 190 0 0 476 0 476 138 -4 c127 -3 141 -5
195 -32 70 -34 147 -110 208 -203 24 -36 130 -211 234 -387 l191 -321 223 -3
c177 -2 222 0 218 10 -7 20 -402 643 -468 738 -75 110 -170 213 -248 270 -50
37 -58 46 -44 52 10 4 46 18 81 31 94 37 169 85 238 153 69 69 106 127 142
223 33 89 42 282 18 385 -43 183 -191 340 -383 407 -143 50 -162 51 -655 56
l-468 5 0 -1166z m853 839 c118 -31 190 -87 236 -184 23 -49 26 -69 26 -161 0
-97 -2 -110 -31 -171 -44 -93 -93 -142 -182 -187 l-76 -37 -223 -3 -223 -4 0
381 0 381 208 0 c152 0 223 -4 265 -15z"/>
<path d="M21919 3940 c-320 -41 -554 -209 -667 -483 -50 -120 -67 -221 -66
-402 0 -130 4 -177 22 -247 74 -297 270 -498 561 -575 83 -22 117 -26 251 -26
166 0 243 12 363 57 205 77 375 254 449 466 105 304 57 715 -109 926 -117 147
-252 231 -437 270 -87 18 -277 26 -367 14z m304 -319 c120 -46 216 -169 258
-328 29 -110 29 -325 1 -434 -64 -241 -209 -359 -442 -359 -227 0 -393 135
-457 372 -24 88 -24 309 0 398 52 193 165 320 326 366 71 21 242 12 314 -15z"/>
<path d="M23870 3943 c-266 -35 -486 -195 -605 -438 -56 -114 -84 -228 -91
-380 -24 -470 182 -807 547 -895 229 -54 541 -25 747 70 l82 39 0 149 0 149
-107 -54 c-153 -76 -207 -88 -383 -87 -123 1 -154 4 -204 22 -117 43 -201 114
-251 211 -28 55 -55 157 -55 209 l0 32 565 0 565 0 0 138 c0 307 -74 520 -233
668 -116 109 -251 161 -437 168 -58 2 -121 2 -140 -1z m245 -312 c120 -53 205
-200 205 -351 l0 -40 -386 0 -386 0 7 37 c33 179 147 320 298 369 63 21 200
13 262 -15z"/>
<path d="M26879 3940 c-320 -41 -554 -209 -667 -483 -50 -120 -67 -221 -66
-402 0 -130 4 -177 22 -247 74 -297 270 -498 561 -575 83 -22 117 -26 251 -26
166 0 243 12 363 57 205 77 375 254 449 466 105 304 57 715 -109 926 -117 147
-252 231 -437 270 -87 18 -277 26 -367 14z m304 -319 c120 -46 216 -169 258
-328 29 -110 29 -325 1 -434 -64 -241 -209 -359 -442 -359 -227 0 -393 135
-457 372 -24 88 -24 309 0 398 52 193 165 320 326 366 71 21 242 12 314 -15z"/>
<path d="M29739 3940 c-320 -41 -554 -209 -667 -483 -50 -120 -67 -221 -66
-402 0 -130 4 -177 22 -247 74 -297 270 -498 561 -575 83 -22 117 -26 251 -26
166 0 243 12 363 57 205 77 375 254 449 466 105 304 57 715 -109 926 -117 147
-252 231 -437 270 -87 18 -277 26 -367 14z m304 -319 c120 -46 216 -169 258
-328 29 -110 29 -325 1 -434 -64 -241 -209 -359 -442 -359 -227 0 -393 135
-457 372 -24 88 -24 309 0 398 52 193 165 320 326 366 71 21 242 12 314 -15z"/>
<path d="M25764 3917 c-139 -36 -265 -169 -329 -347 -6 -17 -10 34 -12 158
l-3 182 -185 0 -185 0 0 -835 0 -835 184 0 185 0 3 473 c4 409 6 480 21 532
43 148 129 265 231 315 86 41 216 39 324 -6 9 -5 12 33 12 170 l0 176 -26 10
c-44 17 -165 21 -220 7z"/>
<path d="M28237 3023 c-4 -991 -2 -959 -74 -1103 -43 -83 -96 -132 -166 -151
-62 -17 -153 -6 -214 25 -29 14 -55 26 -58 26 -3 0 -4 -71 -3 -157 l3 -157 60
-20 c80 -26 253 -27 345 -3 264 70 426 290 470 640 6 50 10 413 10 934 l0 853
-185 0 -184 0 -4 -887z"/>
</g>
</svg>
