<?xml version="1.0" standalone="no"?>
<!DOCTYPE svg PUBLIC "-//W3C//DTD SVG 20010904//EN"
 "http://www.w3.org/TR/2001/REC-SVG-20010904/DTD/svg10.dtd">
<svg version="1.0" xmlns="http://www.w3.org/2000/svg"
 width="175" height="250" viewBox="0 0 376.000000 134.000000"
 preserveAspectRatio="xMidYMid meet">

<g transform="translate(0.000000,134.000000) scale(0.100000,-0.100000)"
fill="#000000" stroke="none">
<path d="M80 1068 c-73 -50 -75 -55 -78 -299 l-3 -219 85 0 86 0 0 94 c0 73 4
98 16 110 13 13 45 16 199 16 l183 0 4 51 c1 28 1 53 -1 55 -2 2 -88 4 -191 4
-131 0 -190 4 -198 12 -18 18 -14 56 7 68 12 6 100 10 215 10 l196 0 0 60 0
60 -244 0 c-236 0 -244 -1 -276 -22z"/>
<path d="M700 1067 c-69 -46 -75 -67 -78 -304 l-3 -213 88 0 88 0 0 189 c0
245 -11 231 175 231 165 0 170 -3 170 -98 l0 -62 -150 0 -150 0 0 -70 0 -70
155 0 155 0 0 -60 0 -60 81 0 80 0 -3 223 c-3 211 -4 224 -25 253 -42 59 -66
64 -321 64 -221 0 -230 -1 -262 -23z"/>
<path d="M1437 1068 c-69 -40 -77 -74 -77 -311 l0 -207 85 0 85 0 0 193 c0
175 2 196 18 210 29 26 270 25 303 -1 31 -26 31 -78 0 -104 -20 -15 -42 -18
-147 -18 l-124 0 0 -70 0 -70 105 0 105 0 46 -70 47 -70 94 0 c73 0 92 3 87
13 -5 6 -27 42 -51 79 -48 74 -50 80 -27 99 38 32 56 89 52 170 -3 86 -19 116
-78 157 -32 21 -41 22 -259 22 -214 0 -228 -2 -264 -22z"/>
<path d="M2162 1073 c-18 -9 -43 -30 -55 -47 -21 -29 -22 -41 -22 -206 0 -165
1 -177 22 -206 43 -60 65 -64 328 -64 266 0 287 4 331 69 46 68 27 183 -39
226 -46 30 -90 36 -214 29 l-123 -7 0 -53 0 -54 109 0 c86 0 113 -3 125 -16
21 -20 20 -37 -2 -57 -16 -14 -43 -17 -170 -17 -147 0 -151 1 -181 26 -31 26
-31 27 -31 124 0 97 0 98 31 124 l31 26 234 0 234 0 0 60 0 60 -287 0 c-245 0
-293 -3 -321 -17z"/>
<path d="M2922 1073 c-18 -9 -43 -30 -55 -47 -20 -29 -22 -44 -25 -206 -2
-162 -1 -177 18 -208 35 -57 61 -62 330 -62 271 0 297 6 339 73 19 31 21 49
21 198 0 183 -8 210 -72 249 -31 18 -51 20 -278 20 -205 0 -250 -3 -278 -17z
m445 -127 c25 -22 28 -31 31 -105 7 -152 -15 -171 -207 -171 -125 0 -131 1
-160 26 -31 26 -31 27 -31 124 0 97 0 98 31 124 30 25 35 26 169 26 132 0 140
-1 167 -24z"/>
<path d="M3632 1060 c-32 -30 -30 -82 4 -109 15 -12 38 -21 51 -21 32 0 73 42
73 75 0 35 -42 75 -78 75 -15 0 -38 -9 -50 -20z m101 -22 c17 -23 19 -31 9
-53 -6 -14 -23 -31 -37 -37 -22 -10 -30 -8 -53 9 -35 26 -40 65 -12 93 28 28
67 23 93 -12z"/>
<path d="M3654 1014 c-4 -22 -2 -40 5 -47 8 -8 11 -5 11 11 0 28 7 28 31 0 19
-22 19 -22 10 -2 -7 14 -7 24 1 32 17 17 1 42 -26 42 -21 0 -26 -6 -32 -36z
m49 11 c1 -5 -6 -11 -15 -13 -11 -2 -18 3 -18 13 0 17 30 18 33 0z"/>
<path d="M2914 467 c-2 -7 -3 -58 -2 -113 l3 -99 283 -3 283 -2 -3 112 -3 113
-278 3 c-224 2 -278 0 -283 -11z m118 -64 c4 -39 36 -43 40 -6 3 24 8 28 33
28 30 0 30 0 33 -62 l3 -63 -36 0 c-31 0 -35 3 -35 25 0 18 -5 25 -20 25 -15
0 -20 -7 -20 -25 0 -21 -5 -25 -30 -25 l-30 0 0 65 0 65 29 0 c25 0 30 -4 33
-27z m198 -38 l0 -65 -35 0 -35 0 0 58 c0 32 3 62 7 65 3 4 19 7 35 7 28 0 28
0 28 -65z m160 52 c13 -7 29 -25 34 -40 8 -22 6 -31 -14 -52 -20 -22 -32 -25
-87 -25 l-63 0 0 65 0 65 53 0 c28 0 63 -6 77 -13z"/>
<path d="M3320 360 c0 -53 12 -64 30 -29 14 25 3 79 -16 79 -10 0 -14 -13 -14
-50z"/>
<path d="M1921 411 c-17 -11 -27 -96 -12 -105 10 -7 17 35 11 73 -1 8 4 17 11
22 8 4 11 10 8 13 -2 3 -11 1 -18 -3z"/>
<path d="M2383 409 c-74 -27 -29 -128 46 -104 25 7 28 43 6 52 -21 8 -33 -6
-15 -17 12 -7 12 -12 3 -21 -20 -20 -63 5 -63 35 0 29 16 43 55 48 25 3 26 4
10 9 -12 3 -30 2 -42 -2z"/>
<path d="M1471 353 c1 -32 4 -46 6 -31 3 18 11 28 26 30 16 2 23 11 25 31 3
24 0 27 -27 27 l-31 0 1 -57z m47 30 c-5 -26 -38 -29 -38 -4 0 15 6 21 21 21
14 0 19 -5 17 -17z"/>
<path d="M2002 355 c1 -33 3 -48 5 -32 4 23 9 27 38 27 29 0 34 -4 38 -27 2
-16 4 -1 4 32 0 33 -2 47 -4 32 -4 -25 -8 -28 -36 -25 -23 2 -33 9 -38 28 -5
16 -7 4 -7 -35z"/>
<path d="M2128 368 c5 -71 10 -77 11 -15 0 31 -2 57 -7 57 -4 0 -6 -19 -4 -42z"/>
<path d="M2170 355 c0 -53 1 -55 28 -55 40 0 72 26 72 59 0 37 -17 51 -62 51
l-38 0 0 -55z m78 33 c19 -19 14 -46 -13 -64 -37 -24 -55 -12 -55 36 0 37 2
40 28 40 15 0 33 -5 40 -12z"/>
<path d="M2470 355 c0 -30 5 -55 10 -55 6 0 10 25 10 55 0 30 -4 55 -10 55 -5
0 -10 -25 -10 -55z"/>
<path d="M2611 358 c-1 -60 5 -67 43 -52 18 7 23 63 6 66 -5 0 -16 1 -22 2 -7
1 -16 10 -20 21 -3 11 -6 -5 -7 -37z m47 -22 c-4 -31 -38 -34 -38 -3 0 29 7
37 27 30 8 -3 13 -15 11 -27z"/>
<path d="M2773 355 c0 -33 2 -45 4 -27 2 18 2 45 0 60 -2 15 -4 0 -4 -33z"/>
<path d="M1555 370 c-3 -5 1 -10 9 -10 9 0 16 -7 16 -15 0 -8 0 -18 1 -22 0
-4 -5 -9 -12 -12 -8 -2 -10 2 -6 13 4 10 3 15 -3 11 -21 -13 -10 -34 18 -33
25 1 28 4 24 27 -8 43 -33 64 -47 41z"/>
<path d="M1633 340 c0 -25 2 -35 4 -22 2 12 2 32 0 45 -2 12 -4 2 -4 -23z"/>
<path d="M1655 370 c-3 -5 1 -10 10 -10 9 0 13 5 10 10 -3 6 -8 10 -10 10 -2
0 -7 -4 -10 -10z"/>
<path d="M1698 375 c-3 -3 -2 -20 1 -38 5 -21 13 -33 26 -35 18 -3 19 -2 3 8
-10 6 -18 20 -18 30 0 12 7 20 18 20 14 0 15 2 2 10 -17 11 -24 12 -32 5z"/>
<path d="M1816 364 c-19 -18 -19 -20 -6 -45 12 -21 40 -25 58 -7 18 18 14 46
-7 58 -25 13 -27 13 -45 -6z m50 -39 c-3 -9 -14 -15 -23 -13 -22 4 -30 38 -11
49 18 11 43 -15 34 -36z"/>
<path d="M2528 369 c-33 -19 -15 -69 24 -69 15 0 38 27 38 44 0 7 -31 36 -38
36 -4 0 -15 -5 -24 -11z m40 -33 c-4 -25 -36 -34 -44 -12 -8 21 13 46 32 39 8
-3 14 -15 12 -27z"/>
<path d="M2695 369 c-4 -6 0 -9 11 -7 18 3 20 -1 23 -42 0 -11 5 -20 9 -20 12
0 1 64 -12 72 -15 11 -24 10 -31 -3z"/>
<path d="M2695 330 c-8 -13 3 -30 18 -30 8 0 7 3 -2 9 -7 5 -10 14 -7 20 4 6
5 11 2 11 -3 0 -8 -4 -11 -10z"/>
</g>
</svg>
